<?xml version="1.0" encoding="utf-8"?>
<!DOCTYPE svg PUBLIC "-//W3C//DTD SVG 1.1//EN" "http://www.w3.org/Graphics/SVG/1.1/DTD/svg11.dtd">
<svg fill="#e5e5e5" version="1.1" xmlns="http://www.w3.org/2000/svg" xmlns:xlink="http://www.w3.org/1999/xlink" x="0px" y="0px" viewBox="0 0 1000 1000" enable-background="new 0 0 1000 1000" xml:space="preserve">
<metadata> Svg Vector Icons : http://www.onlinewebfonts.com/icon </metadata>
<g><g transform="translate(0.000000,512.000000) scale(0.100000,-0.100000)"><path d="M3622.5,5008.9c-352.5-47.9-614.9-168.6-831.4-379.3c-46-44.1-302.7-371.6-569-728c-448.3-597.7-486.6-653.2-484.7-722.2c1.9-49.8,17.2-90,47.9-122.6c44.1-46,2235.6-1252.8,2348.6-1291.2c126.4-46,153.3-19.2,632.2,653.2c245.2,341,455.9,637.9,471.2,657.1c24.9,32.6,42.1,11.5,243.3-277.8c118.8-172.4,220.3-323.7,224.1-337.2c5.7-13.4-116.9-86.2-318-185.8c-337.1-168.6-385-208.8-385-318c0-57.5,51.7-147.5,95.8-172.4c49.8-26.8,1061.3-229.9,1143.7-229.9c145.6,0,239.5,176.2,159,302.7c-46,74.7-69,84.3-342.9,139.8l-216.5,42.1l164.8,86.2c176.2,90,222.2,143.7,222.2,249c0,44.1-170.5,304.6-701.1,1078.5c-387,563.2-729.9,1053.6-760.5,1090l-59.4,67l172.4,5.7c93.9,3.8,507.6,3.8,917.6,0c1000-7.7,906.1,36.4,1371.6-659c176.3-264.4,344.8-500,373.6-523c78.6-61.3,159-51.7,352.5,46c95.8,47.9,172.4,82.4,172.4,76.6c0-5.7-174.3-425.3-385-934.8c-475.1-1136-448.3-1063.2-411.9-1151.3c51.7-124.5,239.5-164.7,325.7-70.9c46,49.8,1084.3,2544,1084.3,2601.5c0,59.4-32.6,120.7-84.3,162.8c-80.4,67.1-162.8,44.1-526.8-136l-341-172.4l-279.7,419.5c-300.8,446.3-381.2,534.5-578.5,632.2c-239.5,118.8-206.9,116.9-1772,113C4312.1,5018.5,3649.3,5012.8,3622.5,5008.9z M3978.8,4574.1c151.3-40.2,316.1-136,423.4-247.1c99.6-103.5,599.6-816.1,599.6-856.3c0-15.3-816.1-1176.2-871.6-1241.3c-3.8-5.8-1863.9,1001.9-1881.2,1019.1c-9.6,7.7,756.7,1011.5,833.3,1090c174.3,178.2,373.6,260.5,636,260.5C3808.3,4600.9,3925.2,4589.4,3978.8,4574.1z"/><path d="M218.3,2139.3c-99.6-42.1-147.5-170.5-99.6-264.4c11.5-23,185.8-208.8,387-410l367.8-369.7L503.8,353.9C195.3-266.8,130.2-410.5,113-517.8c-38.3-241.4,44.1-519.1,208.8-705c42.1-47.9,381.2-524.9,752.9-1063.2c371.6-536.4,718.4-1036.4,772-1109.2c128.4-174.3,310.3-321.8,521.1-423.4c275.9-134.1,354.4-143.7,1072.8-143.7h626.4l55.6,55.6l55.6,55.5v1310.3c0,1210.7-3.8,1312.2-34.5,1348.6c-17.3,23-51.7,51.7-74.7,63.2c-28.7,15.3-490.4,21.1-1599.6,21.1c-1047.9,0-1582.3,7.7-1632.1,21.1c-92,24.9-235.6,157.1-281.6,256.7c-23,47.9-36.4,122.6-36.4,195.4c0,116.8,7.7,134.1,402.3,925.3c268.2,536.4,402.3,825.7,402.3,865.9c0,51.7-36.4,97.7-262.4,323.7l-262.4,266.3l1113,3.8c1097.7,5.7,1114.9,5.7,1168.6,46c105.4,78.5,105.4,243.3,0,321.8c-53.6,40.2-65.1,40.2-1427.2,44.1C513.3,2166.1,270.1,2162.3,218.3,2139.3z M3775.7-2536.9v-1026.8l-501.9,7.7c-492.3,7.6-507.7,7.6-634.1,59.4c-145.6,57.5-274,139.8-375.5,241.4c-63.2,63.2-1180.1,1659-1203,1720.3c-7.7,21.1,218.4,24.9,1352.5,24.9h1362V-2536.9z"/><path d="M8622.4,1541.6c-15.3-5.7-272-157.1-569-335.2c-551.7-329.5-599.6-367.8-599.6-475.1c0-113,136-228,241.4-203.1c23,5.8,239.5,128.3,477,272c239.5,143.7,434.9,256.7,438.7,252.9c1.9-1.9,195.4-346.7,429.1-764.4c254.8-455.9,431-793.1,444.4-846.7c34.5-155.2-3.8-272-132.2-398.5c-70.9-72.8-132.2-116.8-183.9-130.3c-47.9-13.4-287.4-21.1-641.7-21.1l-565.1,1.9l-287.4,385.1c-298.8,402.3-356.3,454-465.5,427.2c-84.3-21.1-157.1-113-157.1-199.2c0-67.1,23-107.3,201.1-344.8l201.1-270.1h-546h-546l-57.5-51.7c-42.1-38.3-63.2-76.6-70.9-134.1c-9.6-74.7-3.8-88.1,57.5-149.4l67.1-67.1l745.2-1.9c408,0,996.1,0,1306.5,1.9l561.3,1.9l-109.2-159C7754.6-3274.4,7733.5-3301.2,7541.9-3414.3c-203-118.8-270.1-132.2-754.8-143.7l-448.3-11.5l-55.5-63.2c-51.7-59.4-55.6-70.9-55.6-235.6v-172.4l-582.4,655.1l-584.3,657.1l90,124.5c47.9,70.9,264.4,371.6,477,670.5c354.4,496.2,388.9,551.7,388.9,622.6c-1.9,176.3-197.3,268.2-323.8,151.3c-30.6-30.6-289.3-381.2-574.7-781.6c-557.5-781.6-565.1-796.9-486.6-909.9c19.2-26.8,406.1-467.4,862-980.8c731.8-823.7,837.2-934.8,896.5-946.3c40.2-7.7,92-1.9,124.5,11.5c103.4,42.1,113,80.5,118.8,454l5.7,341l335.2,11.5c367.8,13.4,452.1,30.7,680.1,145.6c164.7,84.3,329.5,208.8,431,327.6c42.1,49.8,404.2,563.2,804.6,1141.7c402.3,578.5,758.6,1084.3,795,1124.5c199.2,220.3,268.2,567,170.5,850.6c-19.2,53.6-256.7,496.2-530.6,984.7c-446.3,795-505.8,890.8-561.3,913.8C8697.1,1556.9,8668.4,1558.8,8622.4,1541.6z"/><path d="M2624.4,1290.6l-65.1-57.5l-5.7-883.1c-5.8-986.6-7.7-975.1,124.5-1028.7c88.1-38.3,164.7-19.2,226,53.7c47.9,55.5,47.9,61.3,47.9,398.5v341l187.7,7.7c218.4,9.6,331.4,53.6,455.9,178.2c126.4,126.4,170.5,239.5,170.5,431c0,134.1-7.7,180.1-46,258.6c-61.3,120.7-176.2,237.5-298.8,296.9c-88.1,44.1-122.6,47.9-413.8,53.6l-319.9,7.7L2624.4,1290.6z M3258.5,905.6c46-23,74.7-57.5,93.9-109.2c23-67.1,23-84.3-5.7-145.6c-44.1-93.9-132.2-134.1-275.9-126.4l-109.2,5.7l-5.7,180.1c-1.9,99.6-1.9,191.6,3.8,206.9C2975,955.4,3178,949.6,3258.5,905.6z"/><path d="M4279.6,1306c-101.5-61.3-105.4-95.8-97.7-1028.7l5.7-848.6l63.2-61.3l61.3-63.2h490.4h490.4l55.5,63.2c76.6,86.2,76.6,189.7,0,275.9l-55.5,63.2l-346.7,5.7l-346.7,5.7V-81v199.2h136c128.3,0,139.8,3.8,201.1,65.1c69,69,84.3,147.5,44.1,228c-44.1,84.3-95.8,109.2-241.4,109.2h-139.8v210.7V942h346.7h346.7l55.5,55.6c95.8,97.7,69,262.5-53.6,325.7c-26.8,13.4-199.2,21.1-498.1,21.1C4379.2,1344.3,4335.1,1340.4,4279.6,1306z"/><path d="M5691.4,1292.5c-42.1-38.3-63.2-76.6-70.9-134.1c-9.6-74.7-3.8-88.1,57.5-149.4L5745,942h241.4h241.4V204.4c0-825.7,0-831.4,128.3-883.1c84.3-36.4,159-21.1,218.4,42.1l46,49.8l9.6,758.6l9.6,760.5l254.8,9.6c251,9.6,256.7,9.6,302.7,63.2c84.3,97.7,53.7,258.6-63.2,318c-28.7,13.4-256.7,21.1-712.6,21.1h-672.4L5691.4,1292.5z"/></g></g>
</svg>